<svg xmlns="http://www.w3.org/2000/svg" xmlns:xlink="http://www.w3.org/1999/xlink" id="finder-file" width="50" height="50" x="0" y="0" enable-background="new 0 0 50 50" version="1.1" viewBox="0 0 50 50" xml:space="preserve"><path fill="#E0E0E0" d="M38,22v18c0,0.55-0.45,1-1,1H14c-0.55,0-1-0.45-1-1V11c0-0.55,0.45-1,1-1h12V8H13c-1.1,0-2,0.9-2,2v31	c0,1.1,0.9,2,2,2h25c1.1,0,2-0.9,2-2V22H38z"/><path fill="#E0E0E0" d="M40,20H29c-0.55,0-1-0.45-1-1V8L40,20z"/><rect width="8" height="2" x="17" y="18" fill="#E0E0E0"/><rect width="17" height="2" x="17" y="23" fill="#E0E0E0"/><rect width="17" height="2" x="17" y="28" fill="#E0E0E0"/><rect width="12" height="2" x="17" y="33" fill="#E0E0E0"/></svg>