<svg xmlns="http://www.w3.org/2000/svg" xmlns:xlink="http://www.w3.org/1999/xlink" id="icon-info" width="50" height="50" x="0" y="0" enable-background="new 0 0 50 50" version="1.1" viewBox="0 0 50 50" xml:space="preserve"><circle cx="25" cy="25" r="24" fill="#5EC7FD"/><path fill="#4EB5F6" d="M48.16,31.271c-2.131,7.922-8.21,14.211-16,16.643l-9.189-9.271l5.489-15.561l-5.34-5.37l5.46-5.75	L48.16,31.271z"/><circle cx="26" cy="15.001" r="4" fill="#FFF"/><path fill="#FFF" d="M30,36.001c0,2.209-1.791,4-4,4l0,0c-2.209,0-4-1.791-4-4v-10c0-2.209,1.791-4,4-4l0,0c2.209,0,4,1.791,4,4	V36.001z"/></svg>