<svg xmlns="http://www.w3.org/2000/svg" xmlns:xlink="http://www.w3.org/1999/xlink" id="icon-extensions" width="50" height="50" x="0" y="0" enable-background="new 0 0 50 50" version="1.1" viewBox="0 0 50 50" xml:space="preserve"><polygon fill="#42EFE2" points="13 7 25 0 37 7 37 20 25 27 13 20"/><linearGradient id="SVGID_1_" x1="579.211" x2="574.081" y1="801.111" y2="812.814" gradientTransform="matrix(1 0 0 1 -545.1992 -790.9805)" gradientUnits="userSpaceOnUse"><stop offset="0" stop-color="#3DE6D0"/><stop offset="1" stop-color="#3BD0C8"/></linearGradient><polygon fill="url(#SVGID_1_)" points="37 7 37 20 25 27 25 14"/><polygon fill="#47FFCF" points="37 7 25 14 13 7 25 0"/><linearGradient id="SVGID_2_" x1="560.183" x2="555.182" y1="837.569" y2="819.818" gradientTransform="matrix(1 0 0 1 -545.1992 -790.9805)" gradientUnits="userSpaceOnUse"><stop offset="0" stop-color="#4FB6FB"/><stop offset="1" stop-color="#50B4FD"/></linearGradient><polygon fill="url(#SVGID_2_)" points="0 29 12 22 24 29 24 43 12 50 0 43"/><polygon fill="#4598DB" points="24 29 24 43 12 50 12 36"/><polygon fill="#7DD4FF" points="24 29 12 36 0 29 12 22"/><linearGradient id="SVGID_3_" x1="580.894" x2="587.643" y1="821.939" y2="836.689" gradientTransform="matrix(1 0 0 1 -545.1992 -790.9805)" gradientUnits="userSpaceOnUse"><stop offset="0" stop-color="#39D7F5"/><stop offset="1" stop-color="#34D1FF"/></linearGradient><polygon fill="url(#SVGID_3_)" points="26 29 38 22 50 29 50 43 38 50 26 43"/><polygon fill="#31BBDB" points="50 29 50 43 38 50 38 36"/><polygon fill="#6AF1FE" points="50 29 38 36 26 29 38 22"/></svg>